<?xml version="1.0" encoding="UTF-8" standalone="no"?>
<!-- Created with Inkscape (http://www.inkscape.org/) -->

<svg
   xmlns:dc="http://purl.org/dc/elements/1.1/"
   xmlns:cc="http://creativecommons.org/ns#"
   xmlns:rdf="http://www.w3.org/1999/02/22-rdf-syntax-ns#"
   xmlns:svg="http://www.w3.org/2000/svg"
   xmlns="http://www.w3.org/2000/svg"
   xmlns:sodipodi="http://sodipodi.sourceforge.net/DTD/sodipodi-0.dtd"
   xmlns:inkscape="http://www.inkscape.org/namespaces/inkscape"
   width="3213.6855"
   height="600"
   viewBox="0 0 3213.6855 600"
   version="1.1"
   id="SVGRoot"
   inkscape:version="0.92.5 (2060ec1f9f, 2020-04-08)"
   sodipodi:docname="lennarthesse-black-text.svg">
  <defs
     id="defs6206">
    <linearGradient
       gradientUnits="userSpaceOnUse"
       gradientTransform="scale(0.70710678,1.4142136)"
       id="gradient1"
       x1="0"
       y1="0"
       x2="282.84271"
       y2="0">
      <stop
         offset="50%"
         stop-color="#4682b4"
         id="stop2" />
      <stop
         offset="100%"
         stop-color="#325d81"
         id="stop4" />
    </linearGradient>
  </defs>
  <sodipodi:namedview
     id="base"
     pagecolor="#ffffff"
     bordercolor="#666666"
     borderopacity="1.0"
     inkscape:pageopacity="0.0"
     inkscape:pageshadow="2"
     inkscape:zoom="0.1767767"
     inkscape:cx="286.27855"
     inkscape:cy="157.36716"
     inkscape:document-units="px"
     inkscape:current-layer="text6797"
     showgrid="false"
     inkscape:window-width="1920"
     inkscape:window-height="948"
     inkscape:window-x="0"
     inkscape:window-y="27"
     inkscape:window-maximized="1"
     inkscape:pagecheckerboard="true"
     showguides="false"
     inkscape:guide-bbox="true">
    <sodipodi:guide
       position="699.99999,-364"
       orientation="1,0"
       id="guide6807"
       inkscape:locked="false" />
    <sodipodi:guide
       position="0,0"
       orientation="0,5000"
       id="guide6872"
       inkscape:locked="false" />
    <sodipodi:guide
       position="5000,0"
       orientation="-600,0"
       id="guide6874"
       inkscape:locked="false" />
    <sodipodi:guide
       position="5000,600"
       orientation="0,-5000"
       id="guide6876"
       inkscape:locked="false" />
    <sodipodi:guide
       position="0,600"
       orientation="600,0"
       id="guide6878"
       inkscape:locked="false" />
  </sodipodi:namedview>
  <metadata
     id="metadata6209">
    <rdf:RDF>
      <cc:Work
         rdf:about="">
        <dc:format>image/svg+xml</dc:format>
        <dc:type
           rdf:resource="http://purl.org/dc/dcmitype/StillImage" />
        <dc:title />
      </cc:Work>
    </rdf:RDF>
  </metadata>
  <path
     d="m 200.00004,100 v 200 100 200 h 100 V 400 a 100,100 0 0 1 100,100 v 100 h 72.82617 27.17383 V 500 a 200,200 0 0 0 -200,-200 V 100 Z"
     id="path11"
     inkscape:connector-curvature="0"
     style="display:inline;fill:#4682b4"
     inkscape:label="h" />
  <path
     d="M 0,0 V 200 A 200,200 0 0 0 200.00004,400 V 300 A 100,100 0 0 1 100,200 V 0 Z"
     id="path9"
     inkscape:connector-curvature="0"
     style="display:inline;fill:url(#gradient1)"
     inkscape:label="l" />
  <g
     aria-label="Lennart Hesse"
     style="font-style:normal;font-variant:normal;font-weight:bold;font-stretch:normal;font-size:40px;line-height:1.25;font-family:'Comfortaa Light';-inkscape-font-specification:'Comfortaa Light,  Bold';letter-spacing:0px;word-spacing:0px;display:inline;fill:#000000;fill-opacity:1;stroke:none"
     id="text6797"
     inkscape:label="lennart hesse"
     transform="translate(100)">
    <path
       d="m 617.02328,431.2377 q -7.33334,0 -12.33334,-5 -4.66666,-5 -4.66666,-12.33333 V 188.23769 q 0,-7.33333 5,-12.33333 5,-5 12,-5 7.33333,0 12.33333,5 5,5 5,12.33333 v 208.33334 h 120.66667 q 7.33333,0 12.33333,5 5,5 5,12.33334 0,7.33333 -5,12.33333 -5,5 -12.33333,5 z"
       style="font-style:normal;font-variant:normal;font-weight:bold;font-stretch:normal;font-size:333.33334351px;font-family:Comfortaa;-inkscape-font-specification:'Comfortaa Bold';fill:#000000;fill-opacity:1"
       id="path6880"
       inkscape:connector-curvature="0" />
    <path
       d="m 974.35605,337.2377 q 0,6.33333 -4.33333,10.66667 -4.33334,4 -11,4 H 832.35605 q 3.66666,23.33333 21,37.66666 17.66666,14.33334 43,14.33334 10,0 20.66666,-3.66667 11,-3.66667 18,-9 4.66667,-3.66667 11.00001,-3.66667 6.33333,0 10,3.33334 6,5 6,11.33333 0,6 -5.33334,10 -11.33333,9 -28.33333,14.66667 -16.66667,5.66666 -32,5.66666 -27.33334,0 -49,-11.66666 -21.66667,-12 -34.00001,-33 -12,-21 -12,-47.66667 0,-26.66667 11.33334,-47.66667 11.66666,-21.33333 32,-33 20.66667,-12 46.66667,-12 25.66666,0 44.33333,11.33333 18.66667,11.33334 28.66667,31.66667 10,20.33333 10,46.66667 z m -83,-61 q -24.33334,0 -39.66667,13.33333 -15,13.33333 -19,35.66667 h 111 q -3,-22.33334 -16.66667,-35.66667 -13.66666,-13.33333 -35.66666,-13.33333 z"
       style="font-style:normal;font-variant:normal;font-weight:bold;font-stretch:normal;font-size:333.33334351px;font-family:Comfortaa;-inkscape-font-specification:'Comfortaa Bold';fill:#000000;fill-opacity:1"
       id="path6882"
       inkscape:connector-curvature="0" />
    <path
       d="m 1108.3555,247.2377 q 23,0 41.3333,10 18.3334,10 28.6667,29.33333 10.3333,19 10.3333,46 v 82 q 0,7.33334 -5,12.33334 -4.6666,4.66666 -12,4.66666 -7.3333,0 -12.3333,-4.66666 -4.6667,-5 -4.6667,-12.33334 v -82 q 0,-27 -14.6666,-40.66667 -14.3334,-14 -38.3334,-14 -14,0 -25.6666,5.66667 -11.3334,5.66667 -18,15.33333 -6.3334,9.66667 -6.3334,21.66667 v 94 q 0,7.33334 -4.6666,12.33334 -4.6667,4.66666 -12.3334,4.66666 -7.3333,0 -12.3333,-4.66666 -4.6667,-5 -4.6667,-12.33334 V 265.90436 q 0,-7.66666 4.6667,-12.33333 5,-4.66667 12.3333,-4.66667 7.6667,0 12.3334,4.66667 4.6666,4.66667 4.6666,12.33333 v 3.66667 q 10.6667,-10.66667 25.3334,-16.33333 14.6666,-6 31.3333,-6 z"
       style="font-style:normal;font-variant:normal;font-weight:bold;font-stretch:normal;font-size:333.33334351px;font-family:Comfortaa;-inkscape-font-specification:'Comfortaa Bold';fill:#000000;fill-opacity:1"
       id="path6884"
       inkscape:connector-curvature="0" />
    <path
       d="m 1335.6886,247.2377 q 23,0 41.3333,10 18.3334,10 28.6667,29.33333 10.3333,19 10.3333,46 v 82 q 0,7.33334 -5,12.33334 -4.6666,4.66666 -12,4.66666 -7.3333,0 -12.3333,-4.66666 -4.6667,-5 -4.6667,-12.33334 v -82 q 0,-27 -14.6667,-40.66667 -14.3333,-14 -38.3333,-14 -14,0 -25.6667,5.66667 -11.3333,5.66667 -18,15.33333 -6.3333,9.66667 -6.3333,21.66667 v 94 q 0,7.33334 -4.6667,12.33334 -4.6666,4.66666 -12.3333,4.66666 -7.3333,0 -12.3333,-4.66666 -4.6667,-5 -4.6667,-12.33334 V 265.90436 q 0,-7.66666 4.6667,-12.33333 5,-4.66667 12.3333,-4.66667 7.6667,0 12.3333,4.66667 4.6667,4.66667 4.6667,12.33333 v 3.66667 q 10.6667,-10.66667 25.3333,-16.33333 14.6667,-6 31.3334,-6 z"
       style="font-style:normal;font-variant:normal;font-weight:bold;font-stretch:normal;font-size:333.33334351px;font-family:Comfortaa;-inkscape-font-specification:'Comfortaa Bold';fill:#000000;fill-opacity:1"
       id="path6886"
       inkscape:connector-curvature="0" />
    <path
       d="m 1555.0217,247.57103 q 25.6666,0 46.3333,12.33333 21,12 33,33.33334 12.3333,21 12.3333,47 v 74.33333 q 0,7.33334 -5,12.33334 -4.6666,4.66666 -12,4.66666 -7.3333,0 -12.3333,-4.66666 -4.6667,-5 -4.6667,-12.33334 V 402.2377 q -11.6666,14.33333 -28.3333,22.33333 -16.6667,8 -36,8 -24,0 -43.6667,-12 -19.3333,-12 -30.6667,-33 -11,-21.33333 -11,-47.33333 0,-26 12,-47 12,-21.33334 33,-33.33334 21.3334,-12.33333 47.0001,-12.33333 z m 0,155 q 16.6666,0 30,-8 13.6666,-8.33333 21.3333,-22.33333 7.6667,-14.33333 7.6667,-32 0,-17.66667 -7.6667,-32 -7.6667,-14.33334 -21.3333,-22.33334 -13.3334,-8.33333 -30,-8.33333 -16.6667,0 -30.3334,8.33333 -13.3333,8 -21.3333,22.33334 -7.6667,14.33333 -7.6667,32 0,17.66667 7.6667,32 8,14 21.3333,22.33333 13.6667,8 30.3334,8 z"
       style="font-style:normal;font-variant:normal;font-weight:bold;font-stretch:normal;font-size:333.33334351px;font-family:Comfortaa;-inkscape-font-specification:'Comfortaa Bold';fill:#000000;fill-opacity:1"
       id="path6888"
       inkscape:connector-curvature="0" />
    <path
       d="m 1786.6881,246.90436 q 17.6666,0 27.6666,5.33334 10,5.33333 10,13.33333 0,2.33333 -0.3333,3.33333 -3,10.66667 -13.3333,10.66667 -1.6667,0 -5,-0.66667 -13.3334,-2.33333 -21.6667,-2.33333 -24,0 -38.6667,11 -14.6666,11 -14.6666,29.66667 v 97.33333 q 0,8 -4.3334,12.33334 -4,4.33333 -12.3333,4.33333 -8,0 -12.3333,-4 -4.3334,-4.33333 -4.3334,-12.66667 v -149 q 0,-8 4.3334,-12.33333 4.3333,-4.33334 12.3333,-4.33334 16.6667,0 16.6667,16.66667 v 6.33333 q 10,-11.66666 24.6666,-18.33333 14.6667,-6.66667 31.3334,-6.66667 z"
       style="font-style:normal;font-variant:normal;font-weight:bold;font-stretch:normal;font-size:333.33334351px;font-family:Comfortaa;-inkscape-font-specification:'Comfortaa Bold';fill:#000000;fill-opacity:1"
       id="path6890"
       inkscape:connector-curvature="0" />
    <path
       d="m 1937.0208,397.90437 q 6,0 10,4.66666 4.3333,4.66667 4.3333,12 0,7.33334 -5.6666,12 -5.3334,4.66667 -14,4.66667 h -6 q -16.3334,0 -30,-8.33333 -13.3334,-8.66667 -21,-23.33334 -7.6667,-14.66666 -7.6667,-33 V 284.2377 h -15.3333 q -7,0 -11.3334,-4 -4.3333,-4 -4.3333,-10 0,-6.66667 4.3333,-10.66667 4.3334,-4 11.3334,-4 h 15.3333 v -48 q 0,-7.33334 4.6667,-12 4.6666,-4.66667 12,-4.66667 7.3333,0 12,4.66667 4.6666,4.66666 4.6666,12 v 48 h 28.3334 q 7,0 11.3333,4 4.3333,4 4.3333,10.66667 0,6 -4.3333,10 -4.3333,4 -11.3333,4 h -28.3334 v 82.33333 q 0,13.33334 7.3334,22.33334 7.3333,9 18,9 z"
       style="font-style:normal;font-variant:normal;font-weight:bold;font-stretch:normal;font-size:333.33334351px;font-family:Comfortaa;-inkscape-font-specification:'Comfortaa Bold';fill:#000000;fill-opacity:1"
       id="path6892"
       inkscape:connector-curvature="0" />
    <path
       d="m 2111.3536,431.2377 q -7.3334,0 -12.3334,-5 -5,-5 -5,-12.33333 V 188.23769 q 0,-7.66666 5,-12.33333 5,-5 12.3334,-5 7.6666,0 12.3333,5 5,4.66667 5,12.33333 v 95.66667 h 154.6667 v -95.66667 q 0,-7.66666 5,-12.33333 5,-5 12.3333,-5 7.3333,0 12,5 5,4.66667 5,12.33333 v 225.66668 q 0,7.66666 -5,12.66666 -4.6667,4.66667 -12,4.66667 -7.3333,0 -12.3333,-5 -5,-5 -5,-12.33333 v -99.33334 h -154.6667 v 99.33334 q 0,7.33333 -5,12.33333 -4.6667,5 -12.3333,5 z"
       style="font-style:normal;font-variant:normal;font-weight:bold;font-stretch:normal;font-size:333.33334351px;font-family:Comfortaa;-inkscape-font-specification:'Comfortaa Bold';fill:#000000;fill-opacity:1"
       id="path6894"
       inkscape:connector-curvature="0" />
    <path
       d="m 2544.6864,337.2377 q 0,6.33333 -4.3333,10.66667 -4.3333,4 -11,4 h -126.6667 q 3.6667,23.33333 21,37.66666 17.6667,14.33334 43,14.33334 10,0 20.6667,-3.66667 11,-3.66667 18,-9 4.6667,-3.66667 11,-3.66667 6.3333,0 10,3.33334 6,5 6,11.33333 0,6 -5.3333,10 -11.3334,9 -28.3334,14.66667 -16.6666,5.66666 -32,5.66666 -27.3333,0 -49,-11.66666 -21.6666,-12 -34,-33 -12,-21 -12,-47.66667 0,-26.66667 11.3334,-47.66667 11.6666,-21.33333 32,-33 20.6666,-12 46.6666,-12 25.6667,0 44.3334,11.33333 18.6666,11.33334 28.6666,31.66667 10,20.33333 10,46.66667 z m -83,-61 q -24.3333,0 -39.6666,13.33333 -15,13.33333 -19,35.66667 h 111 q -3,-22.33334 -16.6667,-35.66667 -13.6667,-13.33333 -35.6667,-13.33333 z"
       style="font-style:normal;font-variant:normal;font-weight:bold;font-stretch:normal;font-size:333.33334351px;font-family:Comfortaa;-inkscape-font-specification:'Comfortaa Bold';fill:#000000;fill-opacity:1"
       id="path6896"
       inkscape:connector-curvature="0" />
    <path
       d="m 2654.3525,432.57103 q -22.6667,0 -42.6667,-7 -20,-7 -31.3333,-18.33333 -4.3333,-4.33333 -4.3333,-10.33333 0,-8 6.6666,-13 6.3334,-4.66667 11.6667,-4.66667 6.6667,0 12.6667,6 6.3333,7 19,12.33333 12.6666,5 27,5 19,0 29.3333,-6.33333 10.6667,-6.33333 10.6667,-17 0,-10.33333 -10.3334,-17 -10.3333,-7 -35,-11.66667 -64,-12.33333 -64,-52.66667 0,-16.33333 9.6667,-27.66666 9.6667,-11.33334 25.3333,-17 15.6667,-5.66667 33.3334,-5.66667 21.6666,0 38.6666,7 17.3334,7 27.3334,19.33333 4.3333,5.33334 4.3333,10.66667 0,5.66667 -5.6667,10.33333 -3.6666,2.66667 -9.3333,2.66667 -8.6667,0 -15.6667,-6.33333 -8.3333,-7.66667 -17.6666,-10.66667 -9.3334,-3.33333 -22.6667,-3.33333 -15.3333,0 -25.3333,5.33333 -9.6667,5 -9.6667,14.33333 0,6.66667 3.3333,11.33334 3.3334,4.33333 12.6667,8.33333 9.3333,3.66667 27,7.33333 36.3333,7.33334 51.3333,20.33334 15.3334,13 15.3334,33.66667 0,15.33333 -8.3334,28 -8.3333,12.33333 -24.6666,19.66666 -16,7 -38.6667,7 z"
       style="font-style:normal;font-variant:normal;font-weight:bold;font-stretch:normal;font-size:333.33334351px;font-family:Comfortaa;-inkscape-font-specification:'Comfortaa Bold';fill:#000000;fill-opacity:1"
       id="path6898"
       inkscape:connector-curvature="0" />
    <path
       d="m 2835.3524,432.57103 q -22.6667,0 -42.6667,-7 -20,-7 -31.3333,-18.33333 -4.3334,-4.33333 -4.3334,-10.33333 0,-8 6.6667,-13 6.3333,-4.66667 11.6667,-4.66667 6.6666,0 12.6666,6 6.3334,7 19,12.33333 12.6667,5 27,5 19,0 29.3334,-6.33333 10.6666,-6.33333 10.6666,-17 0,-10.33333 -10.3333,-17 -10.3333,-7 -35,-11.66667 -64,-12.33333 -64,-52.66667 0,-16.33333 9.6667,-27.66666 9.6666,-11.33334 25.3333,-17 15.6667,-5.66667 33.3333,-5.66667 21.6667,0 38.6667,7 17.3333,7 27.3333,19.33333 4.3334,5.33334 4.3334,10.66667 0,5.66667 -5.6667,10.33333 -3.6667,2.66667 -9.3333,2.66667 -8.6667,0 -15.6667,-6.33333 -8.3333,-7.66667 -17.6667,-10.66667 -9.3333,-3.33333 -22.6666,-3.33333 -15.3334,0 -25.3334,5.33333 -9.6666,5 -9.6666,14.33333 0,6.66667 3.3333,11.33334 3.3333,4.33333 12.6667,8.33333 9.3333,3.66667 27,7.33333 36.3333,7.33334 51.3333,20.33334 15.3333,13 15.3333,33.66667 0,15.33333 -8.3333,28 -8.3333,12.33333 -24.6667,19.66666 -16,7 -38.6666,7 z"
       style="font-style:normal;font-variant:normal;font-weight:bold;font-stretch:normal;font-size:333.33334351px;font-family:Comfortaa;-inkscape-font-specification:'Comfortaa Bold';fill:#000000;fill-opacity:1"
       id="path6900"
       inkscape:connector-curvature="0" />
    <path
       d="m 3113.6855,337.2377 q 0,6.33333 -4.3334,10.66667 -4.3333,4 -11,4 h -126.6666 q 3.6666,23.33333 21,37.66666 17.6666,14.33334 43,14.33334 10,0 20.6666,-3.66667 11,-3.66667 18,-9 4.6667,-3.66667 11,-3.66667 6.3334,0 10,3.33334 6,5 6,11.33333 0,6 -5.3333,10 -11.3333,9 -28.3333,14.66667 -16.6667,5.66666 -32,5.66666 -27.3334,0 -49,-11.66666 -21.6667,-12 -34,-33 -12,-21 -12,-47.66667 0,-26.66667 11.3333,-47.66667 11.6667,-21.33333 32,-33 20.6667,-12 46.6667,-12 25.6666,0 44.3333,11.33333 18.6667,11.33334 28.6667,31.66667 10,20.33333 10,46.66667 z m -83,-61 q -24.3334,0 -39.6667,13.33333 -15,13.33333 -19,35.66667 h 111 q -3,-22.33334 -16.6667,-35.66667 -13.6666,-13.33333 -35.6666,-13.33333 z"
       style="font-style:normal;font-variant:normal;font-weight:bold;font-stretch:normal;font-size:333.33334351px;font-family:Comfortaa;-inkscape-font-specification:'Comfortaa Bold';fill:#000000;fill-opacity:1"
       id="path6902"
       inkscape:connector-curvature="0" />
  </g>
</svg>
